<?xml version="1.0" standalone="no"?>
<!DOCTYPE svg PUBLIC "-//W3C//DTD SVG 20010904//EN"
 "http://www.w3.org/TR/2001/REC-SVG-20010904/DTD/svg10.dtd">
<svg version="1.0" xmlns="http://www.w3.org/2000/svg"
 width="5262.000000pt" height="5262.000000pt" viewBox="0 0 5262.000000 5262.000000"
 preserveAspectRatio="xMidYMid meet">

<g transform="translate(0.000000,5262.000000) scale(0.100000,-0.100000)"
fill="#000000" stroke="none">
<path d="M20580 39799 c-1075 -110 -2035 -752 -2569 -1716 -228 -412 -365
-879 -401 -1368 -16 -221 -9 -12686 7 -12770 7 -33 17 -118 22 -190 66 -840
510 -1687 1174 -2240 502 -417 1062 -660 1727 -749 123 -17 403 -24 562 -15
708 38 1326 276 1898 728 123 97 394 368 495 496 346 433 592 969 685 1494 45
251 43 216 49 1516 l6 1240 2255 6 c1240 4 2275 10 2300 13 25 4 113 13 195
22 304 30 618 87 947 170 1475 374 2800 1262 3724 2494 1029 1371 1499 3064
1328 4780 -191 1918 -1197 3674 -2759 4815 -311 227 -612 408 -990 595 -801
397 -1620 618 -2515 680 -182 12 -8017 11 -8140 -1z m8818 -880 c351 -68 751
-186 1082 -319 202 -81 576 -264 765 -375 1454 -851 2486 -2260 2849 -3892
383 -1717 -3 -3511 -1056 -4918 -1072 -1432 -2698 -2302 -4473 -2394 -115 -6
-1119 -10 -2535 -9 -3813 2 -4943 -30 -5605 -158 -872 -168 -1550 -543 -1952
-1079 -41 -55 -79 -104 -84 -110 -6 -5 -8 857 -6 2145 l3 2155 26 111 c142
603 456 1002 993 1265 346 168 769 269 1340 319 78 7 1380 14 3750 20 2339 6
3676 13 3760 20 770 61 1499 412 2004 964 414 453 720 1074 857 1744 67 327
79 456 79 857 0 317 -3 379 -23 525 -72 528 -199 951 -422 1405 -326 665 -788
1210 -1405 1660 -66 48 -122 89 -124 91 -9 8 23 3 177 -27z m-1024 -5405 c128
-33 263 -134 328 -244 65 -112 89 -250 64 -370 -43 -207 -184 -353 -401 -417
-56 -17 -175 -18 -1897 -21 l-1838 -2 0 535 0 535 1841 0 c1648 0 1848 -2
1903 -16z"/>
</g>
</svg>
